#!OML:ASF C:\ViconDB\ViconDB\414\Spring2016\041811\Spring2016.ASF
:FULLY-SPECIFIED
:DEGREES
241
root 11.6468 17.6113 -5.51131 -180.842 -15.7591 -166.981
lowerback 1.68372 0.885532 -1.79243
upperback 0.815267 1.08371 3.33124
thorax -0.206249 0.499508 4.41679
lowerneck -12.4503 2.30043 -1.21504
upperneck 24.2959 -2.9405 17.1609
head 10.098 -0.357133 5.86403
rclavicle -7.02704e-014 -8.74653e-015
rhumerus -95.0272 36.6407 -119.693
rradius 91.5006
rwrist 30.0837
rhand -45.1704 -2.26004
rfingers 7.12502
rthumb -17.9476 -31.4519
lclavicle -7.02704e-014 -8.74653e-015
lhumerus -84.9511 -43.8098 122.244
lradius 78.8758
lwrist -30.3386
lhand -45.4867 0.0860552
lfingers 7.12502
lthumb -18.252 29.2497
rfemur 133.482 84.434 -170.21
rtibia 34.2444
rfoot -87.9719 -52.3662
rtoes 17.085
lfemur -42.5564 -9.5181 -8.37039
ltibia 37.4813
lfoot -5.90726 -13.6258
ltoes -16.9276
242
root 11.6506 17.591 -5.64413 -180.626 -15.6196 -166.853
lowerback 1.45627 0.926712 -1.78818
upperback 0.785591 1.14144 3.32219
thorax -0.114146 0.528131 4.4069
lowerneck -12.2598 2.32226 -1.33778
upperneck 23.989 -2.88395 17.4141
head 9.94703 -0.336707 5.96617
rclavicle -1.70955e-014 2.94201e-014
rhumerus -95.2356 36.7543 -119.808
rradius 91.6928
rwrist 29.7569
rhand -44.986 -2.49226
rfingers 7.12502
rthumb -17.7702 -31.7003
lclavicle -1.70955e-014 2.94201e-014
lhumerus -84.6592 -43.7071 122.138
lradius 78.7271
lwrist -30.3367
lhand -45.5041 0.274897
lfingers 7.12502
lthumb -18.2686 29.437
rfemur 134.084 83.7992 -169.2
rtibia 34.3555
rfoot -87.7894 -51.8139
rtoes 15.1652
lfemur -42.5494 -10.0506 -8.34511
ltibia 37.6489
lfoot -5.6592 -13.6718
ltoes -16.3876
243
root 11.6553 17.5667 -5.783 -180.553 -15.5171 -166.738
lowerback 1.33986 0.965505 -1.71281
upperback 0.792791 1.19681 3.25119
thorax -0.0434216 0.556085 4.29117
lowerneck -12.3846 2.30864 -1.22514
upperneck 24.0756 -2.96115 17.4067
head 10.0138 -0.358272 5.94141
rclavicle 3.33958e-014 -4.77083e-014
rhumerus -95.2266 36.761 -119.884
rradius 91.6983
rwrist 29.5222
rhand -44.7957 -1.85058
rfingers 7.12502
rthumb -17.5871 -31.0751
lclavicle 3.33958e-014 -4.77083e-014
lhumerus -84.6955 -43.8853 122.079
lradius 78.7959
lwrist -30.1612
lhand -45.5399 0.400128
lfingers 7.12502
lthumb -18.3031 29.559
rfemur 132.146 83.34 -170.741
rtibia 34.4704
rfoot -87.7152 -51.4319
rtoes 14.2943
lfemur -42.345 -10.5224 -8.41573
ltibia 37.9344
lfoot -5.23038 -13.7205
ltoes -16.1909
244
root 11.6594 17.5433 -5.92445 -180.4 -15.409 -166.639
lowerback 1.1746 1.01539 -1.68568
upperback 0.766396 1.26706 3.20721
thorax 0.0175771 0.592009 4.23149
lowerneck -12.3329 2.28016 -1.28296
upperneck 23.9214 -2.99731 17.5482
head 9.95531 -0.375087 5.99086
rclavicle 3.19049e-014 1.74931e-014
rhumerus -95.3465 36.7302 -120.083
rradius 91.7407
rwrist 29.4354
rhand -44.7763 -2.3349
rfingers 7.12502
rthumb -17.5684 -31.5611
lclavicle 3.19049e-014 1.74931e-014
lhumerus -84.7768 -43.9235 122.12
lradius 78.9086
lwrist -30.026
lhand -45.6162 0.64379
lfingers 7.12502
lthumb -18.3765 29.7958
rfemur 131.424 82.8116 -171.09
rtibia 34.5416
rfoot -87.6708 -51.0794
rtoes 13.7453
lfemur -42.2057 -11.0854 -8.38424
ltibia 38.2913
lfoot -4.75324 -13.8477
ltoes -15.1379
245
root 11.6571 17.5232 -6.06387 -180.114 -15.1622 -166.702
lowerback 0.936648 1.08852 -1.80017
upperback 0.706041 1.37072 3.14884
thorax 0.078889 0.645912 4.23809
lowerneck -12.3013 2.29486 -1.22309
upperneck 23.8321 -2.95957 17.525
head 9.9124 -0.356755 5.97026
rclavicle -5.59579e-014 -4.05521e-014
rhumerus -95.4648 36.7226 -120.253
rradius 91.6558
rwrist 29.4359
rhand -44.7804 -2.34998
rfingers 7.12502
rthumb -17.5723 -31.5759
lclavicle -5.59579e-014 -4.05521e-014
lhumerus -84.4412 -43.9255 121.914
lradius 78.7945
lwrist -29.961
lhand -45.5205 0.505833
lfingers 7.12502
lthumb -18.2845 29.6665
rfemur 132.458 81.9848 -169.882
rtibia 34.5954
rfoot -87.5107 -50.9806
rtoes 12.3814
lfemur -42.1082 -11.768 -8.41344
ltibia 38.6978
lfoot -4.22767 -13.8921
ltoes -13.0921
246
root 11.6548 17.5086 -6.20905 -179.898 -14.9851 -166.865
lowerback 0.760611 1.16882 -1.90096
upperback 0.678325 1.4854 3.03095
thorax 0.139766 0.70563 4.17474
lowerneck -12.3389 2.26559 -1.41442
upperneck 23.8096 -3.0267 17.7603
head 9.92407 -0.385487 6.08445
rclavicle -7.44449e-014 -4.6118e-014
rhumerus -95.5197 36.5749 -120.349
rradius 91.5709
rwrist 29.3345
rhand -44.8312 -2.07686
rfingers 7.12502
rthumb -17.6212 -31.2983
lclavicle -7.44449e-014 -4.6118e-014
lhumerus -83.9981 -43.9017 121.455
lradius 78.747
lwrist -30.3358
lhand -45.3224 0.262684
lfingers 7.12502
lthumb -18.0939 29.4411
rfemur 132.079 81.2832 -170.208
rtibia 34.5633
rfoot -87.3696 -50.6542
rtoes 11.7028
lfemur -41.9368 -12.705 -8.40415
ltibia 39.1371
lfoot -3.72434 -13.711
ltoes -10.1495
247
root 11.6523 17.4973 -6.35294 -179.535 -14.6873 -167.202
lowerback 0.532606 1.2518 -2.26084
upperback 0.602025 1.6079 2.89406
thorax 0.172847 0.771129 4.23949
lowerneck -12.2897 2.25574 -1.46569
upperneck 23.7582 -3.03108 17.8095
head 9.89698 -0.392228 6.10754
rclavicle -1.98785e-014 2.46493e-014
rhumerus -95.575 36.4718 -120.534
rradius 91.3602
rwrist 29.1817
rhand -44.6686 -2.29458
rfingers 7.12502
rthumb -17.4647 -31.53
lclavicle -1.98785e-014 2.46493e-014
lhumerus -83.7753 -43.7485 121.165
lradius 78.8854
lwrist -30.091
lhand -45.2706 -0.0932906
lfingers 7.12502
lthumb -18.044 29.0897
rfemur 133.105 80.4107 -169.345
rtibia 34.4862
rfoot -87.018 -50.3277
rtoes 11.544
lfemur -41.9849 -13.7456 -8.38483
ltibia 39.5841
lfoot -3.4798 -12.5687
ltoes -8.82692
248
root 11.6459 17.4953 -6.49167 -179.199 -14.3399 -167.379
lowerback 0.303076 1.37743 -2.23656
upperback 0.56262 1.78687 2.69066
thorax 0.252192 0.8638 4.01859
lowerneck -12.2637 2.26142 -1.52297
upperneck 23.5731 -3.05838 18.0829
head 9.83541 -0.396012 6.20586
rclavicle -2.52457e-014 -2.22639e-014
rhumerus -95.5115 36.3849 -120.767
rradius 91.192
rwrist 29.1397
rhand -44.6731 -2.49989
rfingers 7.12502
rthumb -17.469 -31.735
lclavicle -2.52457e-014 -2.22639e-014
lhumerus -83.1331 -43.8808 120.392
lradius 78.898
lwrist -30.3404
lhand -44.7828 -0.516544
lfingers 7.12502
lthumb -17.5746 28.7091
rfemur 134.958 79.2105 -167.549
rtibia 34.348
rfoot -86.313 -50.2067
rtoes 11.3986
lfemur -42.1797 -14.811 -8.09989
ltibia 40.0823
lfoot -3.64388 -10.5701
ltoes -9.09311
249
root 11.6447 17.4955 -6.63157 -178.784 -14.0932 -167.832
lowerback 0.1369 1.46202 -2.63903
upperback 0.490794 1.91342 2.50463
thorax 0.254108 0.931657 4.05614
lowerneck -12.2547 2.20436 -1.67913
upperneck 23.4902 -3.10191 18.1653
head 9.8102 -0.423599 6.25546
rclavicle -5.09883e-014 -6.36111e-015
rhumerus -95.4578 36.2238 -120.854
rradius 90.9323
rwrist 29.3057
rhand -44.5272 -2.29005
rfingers 7.12502
rthumb -17.3287 -31.5375
lclavicle -5.09883e-014 -6.36111e-015
lhumerus -82.6354 -43.7853 119.811
lradius 79.0991
lwrist -30.3253
lhand -44.5036 -0.901353
lfingers 7.12502
lthumb -17.306 28.3481
rfemur 136.968 77.8555 -165.824
rtibia 34.2236
rfoot -85.1797 -50.3188
rtoes 11.4602
lfemur -42.4326 -15.696 -8.18684
ltibia 40.5939
lfoot -3.95145 -8.76759
ltoes -9.36764
250
root 11.6378 17.493 -6.76749 -178.452 -13.6784 -168.208
lowerback 0.0871859 1.59712 -2.81339
upperback 0.453842 2.10405 2.25939
thorax 0.229996 1.03155 3.9006
lowerneck -12.4112 2.1887 -1.67996
upperneck 23.5184 -3.16707 18.2576
head 9.86269 -0.439113 6.28781
rclavicle 4.28381e-014 4.77083e-014
rhumerus -95.4147 36.179 -121.146
rradius 90.7166
rwrist 29.0945
rhand -44.5405 -2.088
rfingers 7.12502
rthumb -17.3415 -31.3344
lclavicle 4.28381e-014 4.77083e-014
lhumerus -82.0778 -43.7914 119.097
lradius 79.154
lwrist -30.9481
lhand -44.3084 -0.822106
lfingers 7.12502
lthumb -17.118 28.4438
rfemur 140.101 75.5617 -162.954
rtibia 34.0905
rfoot -82.7081 -49.8231
rtoes 9.20568
lfemur -42.5574 -16.1677 -8.31973
ltibia 41.1493
lfoot -4.26552 -7.7825
ltoes -8.98563
251
root 11.6293 17.49 -6.90516 -178.137 -13.2287 -168.66
lowerback 0.0842966 1.77259 -3.00645
upperback 0.411951 2.34699 1.98582
thorax 0.171008 1.15807 3.72453
lowerneck -12.5176 2.05098 -1.94933
upperneck 23.5259 -3.35821 18.4373
head 9.9144 -0.531401 6.38535
rclavicle 5.36719e-015 -2.06736e-014
rhumerus -95.3416 36.0065 -121.339
rradius 90.4783
rwrist 29.2065
rhand -44.4639 -2.37872
rfingers 7.12502
rthumb -17.2677 -31.6316
lclavicle 5.36719e-015 -2.06736e-014
lhumerus -81.7547 -43.8088 118.541
lradius 79.5011
lwrist -30.9351
lhand -43.8936 -1.45699
lfingers 7.12502
lthumb -16.7188 27.8431
rfemur 142.271 73.1441 -161.131
rtibia 33.9944
rfoot -80.1176 -49.4884
rtoes 6.85909
lfemur -42.5717 -16.3749 -8.6304
ltibia 41.697
lfoot -4.32662 -7.61567
ltoes -7.8049
252
root 11.6223 17.4879 -7.04317 -177.851 -12.7681 -169.15
lowerback 0.0525864 1.94727 -3.29329
upperback 0.403017 2.58794 1.7263
thorax 0.158205 1.28122 3.61744
lowerneck -12.5793 2.07526 -1.8964
upperneck 23.4222 -3.33724 18.5196
head 9.88991 -0.508587 6.40473
rclavicle -5.61567e-014 -1.59028e-014
rhumerus -95.0752 35.7938 -121.403
rradius 89.9156
rwrist 29.9246
rhand -44.8603 -2.21352
rfingers 7.12502
rthumb -17.6492 -31.4325
lclavicle -5.61567e-014 -1.59028e-014
lhumerus -81.3994 -43.9829 118.015
lradius 79.7706
lwrist -31.1449
lhand -43.6079 -1.5419
lfingers 7.12502
lthumb -16.4437 27.7812
rfemur 143.824 70.6632 -159.972
rtibia 33.8854
rfoot -77.3349 -49.3139
rtoes 4.84641
lfemur -42.4884 -16.347 -9.07036
ltibia 42.2278
lfoot -4.47961 -7.70342
ltoes -6.97747
253
root 11.6132 17.4874 -7.18131 -177.559 -12.225 -169.549
lowerback -0.0313482 2.07019 -3.53489
upperback 0.395512 2.75881 1.54935
thorax 0.180162 1.36745 3.57269
lowerneck -12.5715 2.04516 -1.9897
upperneck 23.3286 -3.29305 18.4352
head 9.84616 -0.500087 6.39003
rclavicle 3.44891e-014 -2.8625e-014
rhumerus -95.2265 35.8833 -121.837
rradius 89.7168
rwrist 29.5795
rhand -44.7667 -2.38114
rfingers 7.12502
rthumb -17.5592 -31.6082
lclavicle 3.44891e-014 -2.8625e-014
lhumerus -81.0491 -43.8862 117.554
lradius 80.0248
lwrist -30.997
lhand -43.4214 -1.80342
lfingers 7.12502
lthumb -16.2642 27.5344
rfemur 144.964 68.2725 -159.192
rtibia 33.6918
rfoot -74.729 -49.4774
rtoes 3.57184
lfemur -42.3919 -16.0812 -9.49039
ltibia 42.729
lfoot -4.92477 -7.63763
ltoes -6.65831
